<svg xmlns="http://www.w3.org/2000/svg" viewBox="0 0 78 52">
    <g fill="none" fill-rule="evenodd">
        <path fill="#D1D3CC" d="m30.4 7.22-1.6-1.58c-1.56-1.58-3.46-1.6-5.22.16l-1.26 1.26c-1.77 1.76-1.74 3.65-.16 5.23l1.58 1.58c1.57 1.58 3.47 1.6 5.23-.16l1.26-1.26c1.76-1.76 1.74-3.65.16-5.23zm-7.95 7.95-1.6-1.58c-1.56-1.58-3.45-1.6-5.22.16L14.37 15c-1.76 1.76-1.73 3.65-.16 5.23l5.09 5.08c.58.59 1.25.5 1.7.05.45-.45.52-1.1-.06-1.7l-1.17-1.16c.32-.07.7-.3 1.17-.77l1.34-1.34c1.77-1.77 1.74-3.66.17-5.23zm-6.31 9.87-3.37-3.36c-1.57-1.58-3.46-1.6-5.23.16l-1.26 1.25c-1.76 1.77-1.74 3.66-.16 5.23l3.37 3.38c.59.58 1.24.5 1.7.05.45-.46.53-1.11-.06-1.7l-3.34-3.34c-.63-.63-.61-1.22.1-1.93l1.33-1.34c.71-.7 1.3-.73 1.94-.1l3.34 3.34c.58.6 1.24.51 1.69.06.45-.45.54-1.1-.05-1.7zm34.4 4.25-20.9 20.9c-2.11 2.1-4.52 2.1-6.63 0l-20.9-20.9c-2.1-2.1-2.1-4.51 0-6.62l20.9-20.9c2.11-2.1 4.52-2.1 6.62 0l20.9 20.9c2.1 2.1 2.1 4.52 0 6.62zM27.2 7.31c-.64-.64-1.23-.62-1.94.1l-1.34 1.33c-.7.7-.73 1.3-.1 1.93l1.53 1.53c.64.64 1.23.62 1.94-.1l1.34-1.33c.7-.7.72-1.3.1-1.94L27.2 7.31zm-6.42 9.47c.63.63.6 1.23-.1 1.94l-1.34 1.33c-.7.71-1.3.73-1.93.1l-1.53-1.53c-.63-.63-.61-1.23.1-1.94l1.33-1.33c.71-.71 1.3-.73 1.94-.1l1.53 1.53z"/>
        <path fill="#FDB913" d="m20.78 16.78-1.53-1.53c-.64-.63-1.23-.61-1.94.1l-1.33 1.33c-.72.71-.73 1.31-.1 1.94l1.53 1.53c.63.63 1.22.61 1.93-.1l1.34-1.33c.7-.7.73-1.3.1-1.94zm1.67-1.61c1.57 1.57 1.6 3.46-.17 5.23l-1.34 1.34c-.46.46-.85.7-1.17.77l1.17 1.17c.58.59.5 1.24.06 1.69-.45.45-1.12.54-1.7-.05l-5.1-5.08c-1.56-1.58-1.6-3.47.17-5.23l1.26-1.26c1.77-1.77 3.66-1.74 5.23-.16l1.59 1.58zm6.27-6.33L27.2 7.3c-.64-.64-1.23-.62-1.94.1l-1.34 1.33c-.7.7-.73 1.3-.1 1.94l1.53 1.52c.64.64 1.23.62 1.94-.1l1.34-1.33c.7-.7.72-1.3.1-1.93zm1.67-1.62c1.58 1.58 1.6 3.47-.16 5.23l-1.26 1.26c-1.76 1.77-3.66 1.74-5.23.16l-1.58-1.58c-1.57-1.57-1.6-3.46.16-5.23l1.26-1.26c1.76-1.77 3.66-1.74 5.23-.16l1.58 1.58zM16.14 25.04c.59.6.5 1.25.05 1.7-.45.45-1.1.53-1.7-.06l-3.33-3.33c-.63-.64-1.23-.62-1.94.1L7.9 24.77c-.72.7-.73 1.3-.1 1.93l3.34 3.35c.59.58.5 1.23.06 1.69-.46.44-1.11.53-1.7-.05l-3.37-3.38c-1.57-1.57-1.6-3.46.16-5.23l1.26-1.25c1.77-1.77 3.66-1.74 5.23-.16l3.37 3.36zm11.38-2.37c-2.1 2.1-2.1 4.52 0 6.62l20.9 20.9c2.1 2.1 4.51 2.1 6.62 0l20.9-20.9c2.1-2.1 2.1-4.52 0-6.62l-20.9-20.9c-2.1-2.1-4.52-2.1-6.62 0l-20.9 20.9"/>
        <path fill="#FFFFFE" d="M55.05 34.4c.32 0 .5.18.5.56v1.6c0 .39-.18.56-.5.56h-9.42c-1.48 0-2.24.92-2.24 2.06 0 1.14.76 2.07 2.24 2.07h12.14c1.52 0 2.3-.95 2.3-2.13V32.4c0-1.18-.78-2.13-2.3-2.13h-9.36c-.32 0-.5-.17-.5-.55v-1.6c0-.38.18-.56.5-.55h9.42c1.48 0 2.24-.93 2.24-2.07 0-1.14-.76-2.07-2.24-2.07H45.7c-1.52 0-2.3.95-2.3 2.13v6.72c0 1.18.78 2.12 2.3 2.12h9.36M38.89 15.84c0-.36.16-.56.5-.66a7.06 7.06 0 0 1 2.73-.21c.3.04.45.2.45.45 0 .05-.01.17-.03.23l-.02.12c-.07.33-.17.47-.45.47-.17 0-.46-.05-.8-.05-.28 0-.7.04-.95.12v4.2c0 .38-.16.53-.53.53h-.38c-.36 0-.52-.15-.52-.52v-4.68m8.09 2.62a3.67 3.67 0 0 0-1.02-.13c-.94 0-1.39.28-1.39.9 0 .6.44.87 1.41.87.35 0 .73-.03 1-.11v-1.53zm-3.25-2.58a.67.67 0 0 1-.05-.25c0-.22.17-.34.33-.41.4-.18 1.21-.3 1.88-.3 1.66 0 2.5.73 2.5 2.47v2.95c0 .43-.21.55-.51.62-.4.1-1.41.2-2.09.2-1.64 0-2.65-.63-2.65-1.95 0-1.32 1.03-1.93 2.56-1.93.6 0 1.04.1 1.28.16v-.18c0-.74-.37-1.16-1.33-1.16-.47 0-.84.1-1.18.21-.11.04-.2.06-.29.06-.19 0-.3-.1-.4-.37l-.05-.12zm9.97.4a2.9 2.9 0 0 0-.84-.12c-1.25 0-1.78.76-1.78 1.9s.54 1.89 1.78 1.89c.3 0 .63-.05.84-.12v-3.55zm0-3.13c0-.37.16-.53.52-.53h.38c.37 0 .52.16.52.52v7.16c0 .4-.19.55-.48.65-.4.13-1.2.2-1.76.2-2.13 0-3.25-1.18-3.25-3.08 0-1.95 1.17-3.15 3.06-3.15.43 0 .77.06 1.01.13v-1.9zm2.95 2.41c0-.36.16-.52.53-.52h.38c.36 0 .52.16.52.52v4.96c0 .37-.16.52-.52.52h-.38c-.37 0-.53-.15-.53-.52v-4.96zm.71-3.05c.53 0 .88.34.88.85s-.35.85-.87.85-.88-.34-.88-.85.35-.85.87-.85zm6.69 5.53c0-1.2-.55-1.9-1.53-1.9s-1.53.7-1.53 1.9c0 1.22.55 1.9 1.53 1.9.99 0 1.53-.68 1.53-1.9zm-4.5 0c0-2.03 1.17-3.12 2.97-3.12 1.8 0 2.98 1.1 2.98 3.12 0 2.04-1.18 3.12-2.98 3.12s-2.97-1.08-2.97-3.12z"/>
    </g>
</svg>