<svg class="brand-logo" aria-hidden="true" viewBox="0 0 100 100" version="1.1"
    xmlns="http://www.w3.org/2000/svg"
    xmlns:xlink="http://www.w3.org/1999/xlink">
    <title>AD logo</title>
    <rect class="has-color-on-default has-color-on-reversed" fill="#D10A10" fill-rule="nonzero" x="0" y="0" width="100" height="100"></rect>
    <path class="has-white-on-default has-white-on-reversed" d="M64.7453,24.1477 C83.6911,24.1477 93.7506,34.6596 93.7506,50.493 C93.7506,66.0639 83.5534,76.8384 64.7453,76.8384 L64.7453,76.8384 L60.8779,76.8384 L41.541,24.1477 Z M40.0895,24.1477 L59.4264,76.8384 L44.5226,76.8384 L41.7358,67.855 L23.9314,67.8958 L21.1905,76.8384 L6.25,76.8384 L25.5869,24.1477 L40.0895,24.1477 Z M77.3142,50.493 C77.3523,40.4411 71.8404,35.9735 63.7102,36.1649 L63.7102,36.1649 L60.8779,36.1649 L60.8779,64.8212 L63.8478,64.8212 C72.116,65.0126 77.3523,60.8078 77.3142,50.493 Z M32.8119,39.4406 L27.6298,56.0352 L38.0211,56.0352 L32.8119,39.4406 Z" fill="#FFFFFF"></path>
</svg>