<svg class="brand-logo" aria-hidden="true" viewBox="0 0 100 100" version="1.1"
    xmlns="http://www.w3.org/2000/svg"
    xmlns:xlink="http://www.w3.org/1999/xlink">
    <title>DeStentor logo</title>
    <rect class="has-color-on-default has-color-on-reversed" fill="#D10A10" fill-rule="nonzero" x="0" y="0" width="100" height="100"></rect>
    <path class="has-white-on-default has-white-on-reversed" d="M15.5466,75.8523 C17.3408,75.8523 19.0061,76.8377 19.0061,79.0824 L19.0061,82.6226 C19.0061,84.853 17.3408,85.7955 15.5466,85.7955 L12.2158,85.7955 L12.2158,75.8523 L15.5466,75.8523 Z M27.0837,75.8523 L27.0837,77.8712 L22.6464,77.8712 L22.6464,79.8208 L26.7222,79.8208 L26.7222,81.827 L22.6464,81.827 L22.6464,83.7905 L27.0837,83.7905 L27.0837,85.7955 L20.668,85.7955 L20.668,75.8523 L27.0837,75.8523 Z M34.2837,75.8523 C35.514,75.8523 36.6906,76.3445 37.4779,77.5583 L35.8619,78.6633 C35.4594,78.036 34.8976,77.7485 34.2837,77.7485 C33.5337,77.7485 32.8807,78.036 32.8407,78.7038 L32.8407,78.718 C32.8534,79.508 33.6425,79.6174 34.4706,79.7924 C36.1152,80.1078 37.7194,80.7218 37.6264,82.9989 C37.4634,84.8135 35.7552,85.7955 34.0307,85.7955 C32.8007,85.7955 31.5437,85.182 30.7422,83.9549 L32.2261,82.7949 C33.081,84.1843 35.5667,84.2146 35.6479,82.862 C35.6879,82.0315 34.8049,81.8401 33.8294,81.7032 C32.3452,81.4731 30.8092,80.7636 30.834,78.6355 C30.9407,76.8083 32.5867,75.8523 34.2837,75.8523 Z M45.4895,75.8523 L45.4895,77.9284 L42.7764,77.9284 L42.7764,85.7955 L40.7974,85.7955 L40.7974,77.9284 L38.085,77.9284 L38.085,75.8523 L45.4895,75.8523 Z M52.8669,75.8523 L52.8669,77.8712 L48.4296,77.8712 L48.4296,79.8208 L52.5051,79.8208 L52.5051,81.827 L48.4296,81.827 L48.4296,83.7905 L52.8669,83.7905 L52.8669,85.7955 L46.4512,85.7955 L46.4512,75.8523 L52.8669,75.8523 Z M56.4141,75.8523 L59.4071,81.2727 L60.0756,83.0708 L60.2099,83.0428 C60.1029,82.3969 59.9429,81.1473 59.9283,80.9353 L59.9283,75.8523 L61.8929,75.8523 L61.8929,85.7955 L59.7971,85.7955 L56.9084,80.5714 L56.3356,79.2231 L56.2002,79.2518 L56.4538,80.9496 L56.4538,85.7955 L54.4766,85.7955 L54.4766,75.8523 L56.4141,75.8523 Z M70.2495,75.8523 L70.2495,77.9284 L67.5349,77.9284 L67.5349,85.7955 L65.5574,85.7955 L65.5574,77.9284 L62.8438,77.9284 L62.8438,75.8523 L70.2495,75.8523 Z M74.6611,75.8524 C76.5986,75.8524 78.5362,76.9288 78.5362,79.0726 L78.5362,82.579 C78.5362,84.7169 76.5986,85.7955 74.6611,85.7955 C72.7214,85.7955 70.7832,84.7308 70.7832,82.579 L70.7832,79.0726 C70.7832,76.9177 72.7214,75.8373 74.6611,75.8524 Z M83.7339,75.8523 C85.6296,75.8523 87.0614,76.7661 87.1154,79.0283 C87.1154,80.8525 86.3269,81.7358 84.9615,82.0169 L87.7842,85.7955 L85.3624,85.7955 L82.6772,82.1579 L81.9827,82.1579 L81.9827,85.7955 L80.0039,85.7955 L80.0039,75.8523 L83.7339,75.8523 Z M74.6471,77.8432 C73.6974,77.8432 72.7356,78.2665 72.7356,79.0726 L72.7356,82.579 C72.7356,83.3944 73.6974,83.7905 74.6611,83.7905 C75.6226,83.7766 76.5714,83.3799 76.5714,82.579 L76.5714,79.0726 C76.5714,78.2399 75.6089,77.8292 74.6471,77.8432 Z M15.5466,77.9311 L14.0989,77.9311 L14.0989,83.7159 L15.5466,83.7159 C16.3664,83.7159 17.1096,83.4205 17.1096,82.6226 L17.1096,79.0824 C17.1096,78.2682 16.3664,77.9311 15.5466,77.9311 Z M83.7339,77.9312 L81.9827,77.9312 L81.9827,80.2767 L83.7339,80.2767 C84.6012,80.2767 85.1484,79.912 85.1484,79.0427 C85.1484,78.1985 84.5621,77.9038 83.7339,77.9312 Z M54.0634,16.1932 C47.5321,19.427 43.951,24.7522 43.951,32.2567 C43.951,39.2203 46.8327,43.3357 50.7651,45.9419 L50.7651,49.997 C51.2309,56.3639 57.6137,62.8653 65.7794,62.8653 C69.531,62.8653 75.3303,60.6359 75.3303,56.2751 C75.3303,51.7519 70.1906,50.617 64.1643,49.2865 C63.284032,49.0921495 62.384848,48.8936211 61.4800039,48.6797443 L60.9365242,48.5494871 C60.1206041,48.3510706 59.3022467,48.1384123 58.4911154,47.9033691 L57.9515379,47.743268 C51.3125671,45.7255824 45.3073,42.0722278 45.3073,32.2567 C45.3073,19.6163 55.6288,16.1932 65.1986,16.1932 C69.906,16.1932 74.421,17.8645 78.3662,20.6391 L79.6242,16.1932 L85.2927,16.1932 L85.2927,36.2238 L78.9918,36.2238 C77.9357,27.8286 71.4981,23.3042 65.4186,23.3042 C61.3993,23.3042 57.6537,24.7628 57.6537,29.8945 C57.6537,33.7276 62.4042,34.8092 68.1326,36.1135 L68.6603347,36.2337661 C69.2789698,36.3750022 69.907472,36.5198244 70.5412269,36.6718705 L71.0856241,36.8040498 C71.4492697,36.8934618 71.8142,36.9855721 72.179554,37.0810594 L72.7277952,37.2269079 C80.2218263,39.2571045 87.7130162,42.8491162 87.784,53.8507 C87.6417,65.8538 75.7163,69.9775 66.1931,69.8752 C58.5046,69.9775 53.5448,67.7854 50.7651,66.0614 L50.7651,69.074 L37.7295,69.074 L37.7295,65.0898 C36.3043,66.4433 34.9894,67.5042 33.8279,68.1982 C31.7777,69.3708 29.5895,69.9775 27.1634,69.8752 C23.2011,69.9775 19.6434,68.3386 16.6816,65.058 C13.7115,61.7764 12.2158,57.3276 12.2158,51.4471 C12.2158,45.46 13.7827,40.5374 16.8476,36.9007 C19.9713,33.266 23.7205,31.4656 28.06,31.4656 C30.2171,31.4656 32.1374,31.9884 33.8628,33.0123 C34.9201,33.6414 36.1869,34.7057 37.7295,36.2616 L37.7295,26.1816 C37.7295,24.0576 37.1934,22.9062 35.0126,22.9062 L32.9381,22.9062 L32.9381,16.1932 L54.0634,16.1932 Z M31.1887,37.4023 C28.2838,37.4023 26.2325,39.1478 25.1922,42.6789 C24.6357,44.5735 24.3686,47.2433 24.3686,50.687 C24.3686,54.3815 24.6357,57.1398 25.156,59.0124 C26.1421,62.4011 28.06,64.1034 30.9002,64.1034 C32.6556,64.1034 34.2557,63.4059 35.6927,62.004 C36.1869,61.5453 36.9444,60.6236 37.7295,59.6266 L37.7295,40.9921 C37.0393,40.1941 36.3849,39.4714 35.9814,39.0945 C34.7715,37.9738 33.1798,37.4023 31.1887,37.4023 Z" fill="#FFFFFF"></path>
</svg>