<svg width="28" height="40" viewBox="0 0 65 90" fill="white"
  xmlns="http://www.w3.org/2000/svg">
  <path d="M14.2586 89.999C22.9212 87.9819 31.8499 87.0855 40.3494 84.4564C51.4417 81.0257 62.7915 73.7764 64.5343 61.45C66.2084 49.5804 62.8344 37.7367 62.9889 25.8672L57.7948 28.1514C43.8522 35.7886 45.1744 41.2192 45.1744 41.2192C45.389 43.3827 47.1576 45.5291 48.9863 47.7616C50.4286 49.5287 53.0815 50.9424 50.4801 53.0456C49.7332 53.649 48.5656 53.8904 48.059 54.3127C47.003 55.2006 48.2222 56.4849 48.454 57.2262C48.8832 58.6313 48.4025 59.5019 47.2091 60.1742C47.956 60.8638 48.3509 61.088 48.1792 62.2172C48.0762 62.9326 47.2348 63.1481 46.8571 63.7773C46.0501 65.122 46.7369 65.9065 46.8743 67.1994C47.6727 74.9401 37.3102 70.8456 33.1463 71.2852L28.7936 70.9577C24.6812 70.9318 19.7189 71.8024 18.2679 76.1296L14.25 89.9903L14.2586 89.999Z" fill="white"/>
  <path d="M25.0662 55.1327C27.908 48.8143 31.0931 42.4701 31.8572 35.5828C32.5784 29.0834 31.0845 22.5409 29.1099 16.3088C27.4272 10.9989 25.3495 5.49085 26.3454 0C22.0528 5.35294 16.8071 9.84388 12.0594 14.7917C7.31176 19.7395 2.95899 25.3596 1.08739 31.9711C-1.67709 41.7115 1.28485 52.1071 4.88211 61.5717C8.29907 70.5536 12.6604 79.8199 12.7892 89.6207C16.3349 77.8805 20.0095 66.3385 25.0576 55.1327H25.0662Z" fill="white"/>
</svg>