<svg width="51" height="38" viewBox="0 0 51 38" fill="none"
    xmlns="http://www.w3.org/2000/svg">
    <path d="M25 2.34524V35.1577C24.999 35.6055 24.8699 36.0437 24.628 36.4205C24.386 36.7972 24.0414 37.097 23.6346 37.2842C23.2279 37.4715 22.7761 37.5385 22.3325 37.4773C21.8889 37.4162 21.4721 37.2294 21.1313 36.939L10.8531 28.1265H5.46875C4.01835 28.1265 2.62735 27.5503 1.60176 26.5247C0.57617 25.4991 0 24.1081 0 22.6577L0 14.8452C0 11.8265 2.45 9.37649 5.46875 9.37649H10.85L21.1313 0.563994C21.4717 0.27228 21.8887 0.0843313 22.3327 0.022441C22.7767 -0.0394494 23.2292 0.0273155 23.6365 0.214816C24.0437 0.402317 24.3886 0.702687 24.6303 1.0803C24.872 1.45791 25.0003 1.89691 25 2.34524ZM35.25 10.064L40.625 15.439L46 10.064C46.4442 9.64949 47.032 9.42367 47.6395 9.43417C48.247 9.44466 48.8266 9.69064 49.2562 10.1202C49.6859 10.5499 49.9318 11.1295 49.9423 11.737C49.9528 12.3445 49.727 12.9323 49.3125 13.3765L43.9375 18.7515L49.3125 24.1265C49.621 24.413 49.8465 24.7774 49.9653 25.1813C50.0841 25.5852 50.0918 26.0136 49.9875 26.4215C49.8832 26.8294 49.6708 27.2016 49.3727 27.4989C49.0747 27.7962 48.7019 28.0076 48.2938 28.1109C47.8863 28.215 47.4584 28.2075 47.0548 28.0893C46.6512 27.9711 46.2869 27.7465 46 27.439L40.625 22.064L35.25 27.439C34.9635 27.7475 34.5991 27.973 34.1952 28.0918C33.7913 28.2106 33.3629 28.2183 32.955 28.114C32.5471 28.0097 32.1749 27.7973 31.8776 27.4992C31.5803 27.2012 31.3689 26.8284 31.2656 26.4202C31.1615 26.0128 31.169 25.5849 31.2872 25.1813C31.4054 24.7777 31.63 24.4134 31.9375 24.1265L37.3125 18.7515L31.9375 13.3765C31.629 13.09 31.4035 12.7256 31.2847 12.3217C31.1659 11.9178 31.1582 11.4894 31.2625 11.0815C31.3668 10.6736 31.5792 10.3014 31.8772 10.0041C32.1753 9.70676 32.5481 9.49535 32.9562 9.39212C33.3637 9.28803 33.7916 9.29548 34.1952 9.4137C34.5988 9.53191 34.9631 9.75652 35.25 10.064ZM13.2437 13.5015C12.8188 13.8649 12.2779 14.0644 11.7188 14.064H5.46875C5.26155 14.064 5.06284 14.1463 4.91632 14.2928C4.76981 14.4393 4.6875 14.638 4.6875 14.8452V22.6577C4.6875 23.089 5.0375 23.439 5.46875 23.439H11.7188C12.2781 23.439 12.8187 23.639 13.2437 24.0015L20.3125 30.064V7.43899L13.2437 13.5015Z" fill="#EDE4DC" />
</svg>